<?xml version="1.0" standalone="no"?>
<!DOCTYPE svg PUBLIC "-//W3C//DTD SVG 20010904//EN"
 "http://www.w3.org/TR/2001/REC-SVG-20010904/DTD/svg10.dtd">
<svg version="1.0" xmlns="http://www.w3.org/2000/svg"
 width="16.000000pt" height="16.000000pt" viewBox="0 0 300.000000 300.000000"
 preserveAspectRatio="xMidYMid meet">

<g transform="translate(0.000000,300.000000) scale(0.100000,-0.100000)" fill="#000000" stroke="none">
    <path d="M1426 2035 c-58 -22 -102 -60 -133 -113 -25 -42 -28 -56 -27 -132 1 -97 24 -171 77 -240 18 -24 37 -49 42 -57 8 -11 2 -21 -23 -43 -31 -26 -60 -37 -247 -93 -94 -28 -148 -81 -165 -162 -15 -73 -4 -126 31 -142 52 -25 257 -36 583 -30 314 6 451 18 477 44 20 20 12 123 -14 172 -33 64 -84 96 -221 137 -131 39 -190 65 -205 91 -7 13 -1 26 26 58 119 139 137 332 40 442 -60 68 -163 97 -241 68z"/>
    <path d="M1069 1871 c-59 -37 -84 -87 -83 -166 1 -65 26 -135 70 -192 21 -28 24 -37 13 -49 -19 -23 -56 -40 -144 -64 -44 -12 -94 -31 -111 -41 -41 -25 -64 -74 -64 -138 0 -61 9 -67 104 -77 l66 -7 0 28 c0 53 25 110 66 151 41 42 59 49 216 94 l76 22 -26 23 -27 23 26 29 c35 37 50 68 40 79 -27 29 -54 134 -55 212 -1 95 -6 102 -77 102 -33 0 -57 -8 -90 -29z"/>
    <path d="M1776 1892 c-15 -7 -18 -21 -20 -97 -1 -73 -7 -103 -30 -159 l-28 -68 31 -45 32 -45 -21 -23 -22 -24 73 -21 c146 -42 172 -53 211 -88 41 -37 68 -88 68 -127 0 -58 21 -65 119 -44 43 9 51 14 56 40 10 44 -4 106 -30 138 -27 32 -69 51 -178 82 -42 12 -89 33 -103 45 l-25 24 31 38 c66 82 89 211 51 282 -31 58 -83 93 -143 97 -29 1 -61 -1 -72 -5z"/>
</g>

</svg>
